<?xml version="1.0" standalone="no"?><!DOCTYPE svg PUBLIC "-//W3C//DTD SVG 1.1//EN" "http://www.w3.org/Graphics/SVG/1.1/DTD/svg11.dtd"><svg t="1718593922399" class="icon" viewBox="0 0 1024 1024" version="1.1" xmlns="http://www.w3.org/2000/svg" p-id="5965" xmlns:xlink="http://www.w3.org/1999/xlink" width="200" height="200"><path d="M512 512m-448 0a448 448 0 1 0 896 0 448 448 0 1 0-896 0Z" fill="#FE5D64" p-id="5966"></path><path d="M1024 622L696 1024 512 492z" fill="#FFFFFF" opacity=".2" p-id="5967"></path><path d="M459.803 296a183.37 183.37 0 0 1-5.544 13.518l-1.01 2.16-1.037 2.137a161.11 161.11 0 0 1-3.292 6.304l-1.163 2.075a167.268 167.268 0 0 1-3.703 6.165l-1.308 2.044-1.352 2.044c-0.458 0.68-0.92 1.361-1.39 2.042l-1.436 2.047-0.734 1.026-1.5 2.051c-0.508 0.688-1.024 1.376-1.545 2.064l-1.598 2.073c-0.538 0.693-1.086 1.388-1.641 2.085l-1.697 2.1c-0.572 0.7-1.154 1.407-1.745 2.117l-1.798 2.133-1.854 2.158-1.907 2.18-1.967 2.205-2.025 2.235-2.082 2.262-1.062 1.144-2.177 2.312-2.24 2.348-2.303 2.385-2.37 2.426-2.435 2.466-2.503 2.51-2.575 2.559-2.646 2.606-2.717 2.655-4.214 4.086-5.397 5.132-3.179 3.043-3.033 2.93-2.943 2.87-2.848 2.812-2.765 2.76-2.68 2.711-1.305 1.34-2.559 2.647c-9.227 9.63-16.88 18.483-23.563 27.452l-1.798 2.45a209.86 209.86 0 0 0-10.71 16.34l-0.909 1.554c-15.608 26.979-23.687 56.294-23.52 89.946l0.017 1.624 0.005-0.294c-1.12 50.428 18.405 98.641 54.051 136.04l1.369 1.419c42.26 42.26 99.211 65.938 159.166 65.938 59.803 0 110.963-19.35 147.692-56.543l1.316-1.351 1.185-1.267c35.75-38.617 55.625-89.06 54.961-140.433l-0.019-1.025-0.034 0.637c0.48-8.617 0.321-17.957-0.55-27.908l-0.282-3.005c-0.259-2.56-0.558-5.117-0.898-7.668l-0.435-3.128c-4.284-29.358-14.433-63.177-32.141-99.182l-0.447-0.87c-6.66-12.651-18.927-21.649-33.536-24.859l-1.564-0.328c-12.227-2.443-25.093 0.459-35.457 7.653l-0.348 0.247-0.203-1.029c-12.83-63.38-43.888-105.296-86.516-127.807l-0.828-0.43-0.46-0.393c-0.254-0.206-0.511-0.407-0.773-0.603l-0.574-0.418c-1.936-1.368-4.038-2.44-6.447-3.05l-0.345-0.08-0.43-0.15c-24.157-8.201-50.438 4.864-59.696 29.554z" fill="#FFFFFF" p-id="5968"></path><path d="M514.383 742.543c-30.951 0-60.153-12.265-81.762-33.872-18.104-18.69-28.615-43.217-28.032-69.498-0.583-40.88 22.776-63.656 45.553-85.265 16.352-15.769 32.705-32.12 41.464-56.064 3.505-9.346 13.433-14.017 22.194-10.512 0.583 0 1.165 0.583 1.75 1.166 19.857 9.928 42.633 32.705 47.306 82.931 2.918-2.337 5.839-5.84 9.928-9.345 4.088-4.088 9.929-5.84 15.184-4.67 5.839 1.165 10.511 4.67 12.847 9.343 17.521 35.625 18.69 63.072 18.106 73.583 0.583 26.865-9.928 53.147-28.617 73.001-18.69 19.274-44.969 29.202-75.921 29.202z" fill="#F8B8BB" p-id="5969"></path></svg>